<svg xmlns="http://www.w3.org/2000/svg" width="40" height="24.706" viewBox="0 0 40 24.706">
  <g id="np_quote_3101618_000000" transform="translate(-1 -19.737)">
    <path id="Path_1" data-name="Path 1" d="M8.412,42.2a1.536,1.536,0,0,0,1.365,2.245,1.554,1.554,0,0,0,1.173-.536C12.6,42,18.025,35.342,18.591,29.483a8.841,8.841,0,0,0,.057-.969,7.154,7.154,0,0,0-.037-.725,8.817,8.817,0,1,0-10.148,9.4,1.17,1.17,0,0,1,.966,1.473Z" fill="blue"/>
    <path id="Path_2" data-name="Path 2" d="M63.175,42.2a1.536,1.536,0,0,0,1.365,2.245,1.556,1.556,0,0,0,1.173-.536c1.653-1.907,7.074-8.565,7.64-14.424a8.842,8.842,0,0,0,.057-.969,7.156,7.156,0,0,0-.037-.725,8.817,8.817,0,1,0-10.146,9.4,1.17,1.17,0,0,1,.966,1.473Z" transform="translate(-32.411)" fill="blue"/>
  </g>
</svg>
