<svg xmlns="http://www.w3.org/2000/svg" width="30" height="30" viewBox="0 0 30 30">
  <g id="np_refresh_2729471_000000" transform="translate(-8.016 -8.035)">
    <path id="Path_3" data-name="Path 3" d="M24.382,37.972a15.031,15.031,0,1,1,9.234-4.338,15,15,0,0,1-9.234,4.338Zm.1-28.455h0a13.6,13.6,0,1,0,8.128,3.9,13.568,13.568,0,0,0-8.128-3.9Z" transform="translate(0 0)" fill="#333"/>
    <path id="Path_4" data-name="Path 4" d="M45.246,37.012,43.339,34.2a.538.538,0,0,0-.85,0l-1.907,2.811a.429.429,0,0,0,.424.639h1.007a6.071,6.071,0,1,1-1.525-6.071.893.893,0,1,0,1.261-1.264,7.875,7.875,0,1,0,2.111,7.335h.957a.432.432,0,0,0,.428-.639Z" transform="translate(-13.047 -12.843)" fill="#333"/>
  </g>
</svg>
